<svg xmlns="http://www.w3.org/2000/svg" xmlns:xlink="http://www.w3.org/1999/xlink" contentStyleType="text/css" data-diagram-type="ACTIVITY" height="414px" preserveAspectRatio="none" style="width:491px;height:414px;background:#FFFFFF;" version="1.1" viewBox="0 0 491 414" width="491px" zoomAndPan="magnify"><title>AppController._handle_dsl_command / _handle_dsl_result</title><defs/><g><g class="title" data-source-line="1"><text fill="#000000" font-family="sans-serif" font-size="14" font-weight="bold" lengthAdjust="spacing" textLength="448.5469" x="20" y="32.9951">AppController._handle_dsl_command / _handle_dsl_result</text></g><ellipse cx="245.7734" cy="57.2969" fill="#222222" rx="10" ry="10" style="stroke:#222222;stroke-width:1;"/><rect fill="#F1F1F1" height="33.9688" rx="12.5" ry="12.5" style="stroke:#181818;stroke-width:0.5;" width="247.4561" x="122.0454" y="87.2969"/><text fill="#000000" font-family="sans-serif" font-size="12" lengthAdjust="spacing" textLength="227.4561" x="132.0454" y="108.4355">&#25509;&#25910; DSL &#25991;&#26412; (&#26469;&#33258;&#35270;&#22270;/NL/DSL &#25511;&#21046;&#21488;)</text><rect fill="#F1F1F1" height="33.9688" rx="12.5" ry="12.5" style="stroke:#181818;stroke-width:0.5;" width="422.6451" x="34.4509" y="141.2656"/><text fill="#000000" font-family="sans-serif" font-size="12" lengthAdjust="spacing" textLength="402.6451" x="44.4509" y="162.4043">_wrap_dsl(dsl_text) -&gt; &#38468;&#21152;&#19978;&#19979;&#25991;&#19982; OperationRecorder.record_dsl()</text><rect fill="#F1F1F1" height="33.9688" rx="12.5" ry="12.5" style="stroke:#181818;stroke-width:0.5;" width="276.7404" x="107.4032" y="195.2344"/><text fill="#000000" font-family="sans-serif" font-size="12" lengthAdjust="spacing" textLength="256.7404" x="117.4032" y="216.373">&#36716;&#20132; DSLController.process_script(dsl_text)</text><polygon fill="#F1F1F1" points="195.7392,249.2031,295.8077,249.2031,307.8077,261.2031,295.8077,273.2031,195.7392,273.2031,183.7392,261.2031,195.7392,249.2031" style="stroke:#181818;stroke-width:0.5;"/><text fill="#000000" font-family="sans-serif" font-size="11" lengthAdjust="spacing" textLength="100.0685" x="195.7392" y="265.0112">&#25910;&#21040;&#32467;&#26524;: success?</text><text fill="#000000" font-family="sans-serif" font-size="11" lengthAdjust="spacing" textLength="19.0083" x="164.7309" y="258.6089">yes</text><rect fill="#F1F1F1" height="47.9375" rx="12.5" ry="12.5" style="stroke:#181818;stroke-width:0.5;" width="132.0438" x="104.7404" y="283.2031"/><text fill="#000000" font-family="sans-serif" font-size="12" lengthAdjust="spacing" textLength="112.0438" x="114.7404" y="304.3418">&#21521;&#35270;&#22270;&#23637;&#31034;&#32467;&#26524;/&#28040;&#24687;</text><text fill="#000000" font-family="sans-serif" font-size="12" lengthAdjust="spacing" textLength="108.0008" x="114.7404" y="318.3105">&#21487;&#33021;&#26356;&#26032;&#32467;&#26500;&#19982;&#30011;&#24067;</text><rect fill="#F1F1F1" height="33.9688" rx="12.5" ry="12.5" style="stroke:#181818;stroke-width:0.5;" width="128.0008" x="256.7842" y="283.2031"/><text fill="#000000" font-family="sans-serif" font-size="12" lengthAdjust="spacing" textLength="108.0008" x="266.7842" y="304.3418">&#21521;&#35270;&#22270;&#26174;&#31034;&#38169;&#35823;&#20449;&#24687;</text><polygon fill="#F1F1F1" points="245.7734,337.1406,257.7734,349.1406,245.7734,361.1406,233.7734,349.1406,245.7734,337.1406" style="stroke:#181818;stroke-width:0.5;"/><ellipse cx="245.7734" cy="392.1406" fill="none" rx="11" ry="11" style="stroke:#222222;stroke-width:1;"/><ellipse cx="245.7734" cy="392.1406" fill="#222222" rx="6" ry="6" style="stroke:#222222;stroke-width:1;"/><line style="stroke:#181818;stroke-width:1;" x1="245.7734" x2="245.7734" y1="67.2969" y2="87.2969"/><polygon fill="#181818" points="241.7734,77.2969,245.7734,87.2969,249.7734,77.2969,245.7734,81.2969" style="stroke:#181818;stroke-width:1;"/><line style="stroke:#181818;stroke-width:1;" x1="245.7734" x2="245.7734" y1="121.2656" y2="141.2656"/><polygon fill="#181818" points="241.7734,131.2656,245.7734,141.2656,249.7734,131.2656,245.7734,135.2656" style="stroke:#181818;stroke-width:1;"/><line style="stroke:#181818;stroke-width:1;" x1="245.7734" x2="245.7734" y1="175.2344" y2="195.2344"/><polygon fill="#181818" points="241.7734,185.2344,245.7734,195.2344,249.7734,185.2344,245.7734,189.2344" style="stroke:#181818;stroke-width:1;"/><line style="stroke:#181818;stroke-width:1;" x1="183.7392" x2="170.7623" y1="261.2031" y2="261.2031"/><line style="stroke:#181818;stroke-width:1;" x1="170.7623" x2="170.7623" y1="261.2031" y2="283.2031"/><polygon fill="#181818" points="166.7623,273.2031,170.7623,283.2031,174.7623,273.2031,170.7623,277.2031" style="stroke:#181818;stroke-width:1;"/><line style="stroke:#181818;stroke-width:1;" x1="307.8077" x2="320.7846" y1="261.2031" y2="261.2031"/><line style="stroke:#181818;stroke-width:1;" x1="320.7846" x2="320.7846" y1="261.2031" y2="283.2031"/><polygon fill="#181818" points="316.7846,273.2031,320.7846,283.2031,324.7846,273.2031,320.7846,277.2031" style="stroke:#181818;stroke-width:1;"/><line style="stroke:#181818;stroke-width:1;" x1="170.7623" x2="170.7623" y1="331.1406" y2="349.1406"/><line style="stroke:#181818;stroke-width:1;" x1="170.7623" x2="233.7734" y1="349.1406" y2="349.1406"/><polygon fill="#181818" points="223.7734,345.1406,233.7734,349.1406,223.7734,353.1406,227.7734,349.1406" style="stroke:#181818;stroke-width:1;"/><line style="stroke:#181818;stroke-width:1;" x1="320.7846" x2="320.7846" y1="317.1719" y2="349.1406"/><line style="stroke:#181818;stroke-width:1;" x1="320.7846" x2="257.7734" y1="349.1406" y2="349.1406"/><polygon fill="#181818" points="267.7734,345.1406,257.7734,349.1406,267.7734,353.1406,263.7734,349.1406" style="stroke:#181818;stroke-width:1;"/><line style="stroke:#181818;stroke-width:1;" x1="245.7734" x2="245.7734" y1="229.2031" y2="249.2031"/><polygon fill="#181818" points="241.7734,239.2031,245.7734,249.2031,249.7734,239.2031,245.7734,243.2031" style="stroke:#181818;stroke-width:1;"/><line style="stroke:#181818;stroke-width:1;" x1="245.7734" x2="245.7734" y1="361.1406" y2="381.1406"/><polygon fill="#181818" points="241.7734,371.1406,245.7734,381.1406,249.7734,371.1406,245.7734,375.1406" style="stroke:#181818;stroke-width:1;"/><!--SRC=[LP3FIm915CVl-rVCqJtKtdUXY3fAGLs3PTaTSM7S6MP6gcCeAGPQj4cYHO4YXB06iIoAzi_iZEj_qQmUijlxyNsVztsF-nn1S4J8CGuunGX1kc-NdS13qFOOibrSgQWC662tIY6h8gunxb2kcR8zac4CJYwAG7ORSZ011VawoXgVsVXEz9V6QT7OzDfZqOn5PwfRccbVKOVah4BEu_2Qws3l0AnxTT5wJvDMcjmhLfgqmHc1rE4-3iwXYwcd_D5Di1dEKTbYaiw6-VgT6mZ5BcJCPYxr2VzROcb-ITaBOz6ShkPFycrW0bPrS-sX3dWP1g1m0vck0M2AXyVj1UBhUJMSRUM6Z9loDheCH2VAQWlP_vRTBQcktAx2kKXgbWOHW_yGycMf4EkmbqLH-lEX24eKU7v9FH6JNm00]--></g></svg>