<svg xmlns="http://www.w3.org/2000/svg" xmlns:xlink="http://www.w3.org/1999/xlink" contentStyleType="text/css" data-diagram-type="ACTIVITY" height="476px" preserveAspectRatio="none" style="width:1164px;height:476px;background:#FFFFFF;" version="1.1" viewBox="0 0 1164 476" width="1164px" zoomAndPan="magnify"><title>DSLController.process_command</title><defs/><g><g class="title" data-source-line="1"><text fill="#000000" font-family="sans-serif" font-size="14" font-weight="bold" lengthAdjust="spacing" textLength="259.5469" x="450.7621" y="32.9951">DSLController.process_command</text></g><ellipse cx="582.0355" cy="57.2969" fill="#222222" rx="10" ry="10" style="stroke:#222222;stroke-width:1;"/><rect fill="#F1F1F1" height="33.9688" rx="12.5" ry="12.5" style="stroke:#181818;stroke-width:0.5;" width="229.415" x="467.328" y="87.2969"/><text fill="#000000" font-family="sans-serif" font-size="12" lengthAdjust="spacing" textLength="209.415" x="477.328" y="108.4355">&#25509;&#25910; command_str &#24182;&#36827;&#34892;&#22522;&#26412;&#35268;&#33539;&#21270;</text><polygon fill="#F1F1F1" points="89.9539,141.2656,207.3334,141.2656,219.3334,153.2656,207.3334,165.2656,89.9539,165.2656,77.9539,153.2656,89.9539,141.2656" style="stroke:#181818;stroke-width:0.5;"/><text fill="#000000" font-family="sans-serif" font-size="11" lengthAdjust="spacing" textLength="19.0083" x="152.6436" y="175.4761">yes</text><text fill="#000000" font-family="sans-serif" font-size="11" lengthAdjust="spacing" textLength="117.3795" x="89.9539" y="157.0737">&#30446;&#26631;&#19978;&#19979;&#25991; == linear?</text><rect fill="#F1F1F1" height="33.9688" rx="12.5" ry="12.5" style="stroke:#181818;stroke-width:0.5;" width="275.2873" x="11" y="198.0703"/><text fill="#000000" font-family="sans-serif" font-size="12" lengthAdjust="spacing" textLength="255.2873" x="21" y="219.209">&#35843;&#29992; _process_linear_command(command)</text><polygon fill="#F1F1F1" points="374.8437,141.2656,483.4791,141.2656,495.4791,153.2656,483.4791,165.2656,374.8437,165.2656,362.8437,153.2656,374.8437,141.2656" style="stroke:#181818;stroke-width:0.5;"/><text fill="#000000" font-family="sans-serif" font-size="11" lengthAdjust="spacing" textLength="19.0083" x="433.1614" y="175.4761">yes</text><text fill="#000000" font-family="sans-serif" font-size="11" lengthAdjust="spacing" textLength="108.6354" x="374.8437" y="157.0737">&#30446;&#26631;&#19978;&#19979;&#25991; == tree?</text><rect fill="#F1F1F1" height="33.9688" rx="12.5" ry="12.5" style="stroke:#181818;stroke-width:0.5;" width="265.7482" x="296.2873" y="198.0703"/><text fill="#000000" font-family="sans-serif" font-size="12" lengthAdjust="spacing" textLength="245.7482" x="306.2873" y="219.209">&#35843;&#29992; _process_tree_command(command)</text><rect fill="#F1F1F1" height="47.9375" rx="12.5" ry="12.5" style="stroke:#181818;stroke-width:0.5;" width="206.3282" x="771.7739" y="180.4668"/><text fill="#000000" font-family="sans-serif" font-size="12" lengthAdjust="spacing" textLength="132.001" x="781.7739" y="201.6055">&#25353;&#20851;&#38190;&#23383;&#33258;&#21160;&#21028;&#23450;&#19978;&#19979;&#25991;</text><text fill="#000000" font-family="sans-serif" font-size="12" lengthAdjust="spacing" textLength="186.3282" x="781.7739" y="215.5742">(bst/avl/huffman/binarytree &#31561;)</text><polygon fill="#F1F1F1" points="838.2133,252.0391,911.6628,252.0391,923.6628,264.0391,911.6628,276.0391,838.2133,276.0391,826.2133,264.0391,838.2133,252.0391" style="stroke:#181818;stroke-width:0.5;"/><text fill="#000000" font-family="sans-serif" font-size="11" lengthAdjust="spacing" textLength="73.4495" x="838.2133" y="267.8472">&#21028;&#23450;&#20026; linear?</text><text fill="#000000" font-family="sans-serif" font-size="11" lengthAdjust="spacing" textLength="19.0083" x="807.205" y="261.4448">yes</text><rect fill="#F1F1F1" height="33.9688" rx="12.5" ry="12.5" style="stroke:#181818;stroke-width:0.5;" width="275.2873" x="592.0355" y="286.0391"/><text fill="#000000" font-family="sans-serif" font-size="12" lengthAdjust="spacing" textLength="255.2873" x="602.0355" y="307.1777">&#35843;&#29992; _process_linear_command(command)</text><rect fill="#F1F1F1" height="33.9688" rx="12.5" ry="12.5" style="stroke:#181818;stroke-width:0.5;" width="265.7482" x="887.3228" y="286.0391"/><text fill="#000000" font-family="sans-serif" font-size="12" lengthAdjust="spacing" textLength="245.7482" x="897.3228" y="307.1777">&#35843;&#29992; _process_tree_command(command)</text><polygon fill="#F1F1F1" points="874.938,326.0078,886.938,338.0078,874.938,350.0078,862.938,338.0078,874.938,326.0078" style="stroke:#181818;stroke-width:0.5;"/><rect fill="#F1F1F1" height="33.9688" rx="12.5" ry="12.5" style="stroke:#181818;stroke-width:0.5;" width="276.0449" x="444.0131" y="390.0078"/><text fill="#000000" font-family="sans-serif" font-size="12" lengthAdjust="spacing" textLength="256.0449" x="454.0131" y="411.1465">&#26681;&#25454;&#25191;&#34892;&#32467;&#26524;&#21521;&#35270;&#22270;/&#25511;&#21046;&#22120;&#36820;&#22238;&#25104;&#21151;&#25110;&#38169;&#35823;&#28040;&#24687;</text><ellipse cx="582.0355" cy="454.9766" fill="none" rx="11" ry="11" style="stroke:#222222;stroke-width:1;"/><ellipse cx="582.0355" cy="454.9766" fill="#222222" rx="6" ry="6" style="stroke:#222222;stroke-width:1;"/><line style="stroke:#181818;stroke-width:1;" x1="582.0355" x2="582.0355" y1="67.2969" y2="87.2969"/><polygon fill="#181818" points="578.0355,77.2969,582.0355,87.2969,586.0355,77.2969,582.0355,81.2969" style="stroke:#181818;stroke-width:1;"/><line style="stroke:#181818;stroke-width:1;" x1="826.2133" x2="729.6792" y1="264.0391" y2="264.0391"/><line style="stroke:#181818;stroke-width:1;" x1="729.6792" x2="729.6792" y1="264.0391" y2="286.0391"/><polygon fill="#181818" points="725.6792,276.0391,729.6792,286.0391,733.6792,276.0391,729.6792,280.0391" style="stroke:#181818;stroke-width:1;"/><line style="stroke:#181818;stroke-width:1;" x1="923.6628" x2="1020.1969" y1="264.0391" y2="264.0391"/><line style="stroke:#181818;stroke-width:1;" x1="1020.1969" x2="1020.1969" y1="264.0391" y2="286.0391"/><polygon fill="#181818" points="1016.1969,276.0391,1020.1969,286.0391,1024.1969,276.0391,1020.1969,280.0391" style="stroke:#181818;stroke-width:1;"/><line style="stroke:#181818;stroke-width:1;" x1="729.6792" x2="729.6792" y1="320.0078" y2="338.0078"/><line style="stroke:#181818;stroke-width:1;" x1="729.6792" x2="862.938" y1="338.0078" y2="338.0078"/><polygon fill="#181818" points="852.938,334.0078,862.938,338.0078,852.938,342.0078,856.938,338.0078" style="stroke:#181818;stroke-width:1;"/><line style="stroke:#181818;stroke-width:1;" x1="1020.1969" x2="1020.1969" y1="320.0078" y2="338.0078"/><line style="stroke:#181818;stroke-width:1;" x1="1020.1969" x2="886.938" y1="338.0078" y2="338.0078"/><polygon fill="#181818" points="896.938,334.0078,886.938,338.0078,896.938,342.0078,892.938,338.0078" style="stroke:#181818;stroke-width:1;"/><line style="stroke:#181818;stroke-width:1;" x1="874.938" x2="874.938" y1="228.4043" y2="252.0391"/><polygon fill="#181818" points="870.938,242.0391,874.938,252.0391,878.938,242.0391,874.938,246.0391" style="stroke:#181818;stroke-width:1;"/><line style="stroke:#181818;stroke-width:1;" x1="148.6436" x2="148.6436" y1="165.2656" y2="198.0703"/><polygon fill="#181818" points="144.6436,188.0703,148.6436,198.0703,152.6436,188.0703,148.6436,192.0703" style="stroke:#181818;stroke-width:1;"/><line style="stroke:#181818;stroke-width:1;" x1="148.6436" x2="148.6436" y1="232.0391" y2="370.0078"/><polygon fill="#181818" points="144.6436,360.0078,148.6436,370.0078,152.6436,360.0078,148.6436,364.0078" style="stroke:#181818;stroke-width:1;"/><line style="stroke:#181818;stroke-width:1;" x1="429.1614" x2="429.1614" y1="165.2656" y2="198.0703"/><polygon fill="#181818" points="425.1614,188.0703,429.1614,198.0703,433.1614,188.0703,429.1614,192.0703" style="stroke:#181818;stroke-width:1;"/><line style="stroke:#181818;stroke-width:1;" x1="429.1614" x2="429.1614" y1="232.0391" y2="370.0078"/><polygon fill="#181818" points="425.1614,360.0078,429.1614,370.0078,433.1614,360.0078,429.1614,364.0078" style="stroke:#181818;stroke-width:1;"/><line style="stroke:#181818;stroke-width:1;" x1="219.3334" x2="362.8437" y1="153.2656" y2="153.2656"/><polygon fill="#181818" points="352.8437,149.2656,362.8437,153.2656,352.8437,157.2656,356.8437,153.2656" style="stroke:#181818;stroke-width:1;"/><line style="stroke:#181818;stroke-width:1;" x1="582.0355" x2="582.0355" y1="121.2656" y2="126.2656"/><line style="stroke:#181818;stroke-width:1;" x1="582.0355" x2="148.6436" y1="126.2656" y2="126.2656"/><line style="stroke:#181818;stroke-width:1;" x1="148.6436" x2="148.6436" y1="126.2656" y2="141.2656"/><polygon fill="#181818" points="144.6436,131.2656,148.6436,141.2656,152.6436,131.2656,148.6436,135.2656" style="stroke:#181818;stroke-width:1;"/><line style="stroke:#181818;stroke-width:1;" x1="495.4791" x2="874.938" y1="153.2656" y2="153.2656"/><line style="stroke:#181818;stroke-width:1;" x1="874.938" x2="874.938" y1="153.2656" y2="180.4668"/><polygon fill="#181818" points="870.938,170.4668,874.938,180.4668,878.938,170.4668,874.938,174.4668" style="stroke:#181818;stroke-width:1;"/><line style="stroke:#181818;stroke-width:1;" x1="874.938" x2="874.938" y1="350.0078" y2="370.0078"/><polygon fill="#181818" points="870.938,360.0078,874.938,370.0078,878.938,360.0078,874.938,364.0078" style="stroke:#181818;stroke-width:1;"/><line style="stroke:#181818;stroke-width:1;" x1="148.6436" x2="874.938" y1="370.0078" y2="370.0078"/><line style="stroke:#181818;stroke-width:1;" x1="582.0355" x2="582.0355" y1="370.0078" y2="390.0078"/><polygon fill="#181818" points="578.0355,380.0078,582.0355,390.0078,586.0355,380.0078,582.0355,384.0078" style="stroke:#181818;stroke-width:1;"/><line style="stroke:#181818;stroke-width:1;" x1="582.0355" x2="582.0355" y1="423.9766" y2="443.9766"/><polygon fill="#181818" points="578.0355,433.9766,582.0355,443.9766,586.0355,433.9766,582.0355,437.9766" style="stroke:#181818;stroke-width:1;"/><!--SRC=[bP91Im9168Rl-ok-erxQko8TwjYjQo2hpkB2kYkpK-0nh5nj4wF5i1KjA5OYro1Or23_ZFFj-2_QHUqcrMK6XlTzllVb6wOndS3XyT61QJ1gwZgXUrLg5ebbvOjcfQ8O9SbY2cLI1jilw8QmUSrRZ0AVXMBXYIU73-VOVnF-XN3gtEbc9Ks5LEG5-DXOJblBwJLs6v3BWQuPHA7xQM1bOa2gHgoq190Hx_N87K5-EtajsmP8RUvqLYAwHNQW6INaLt0Yse5DvEWq-UN7oWtu-5uqNdbhnErd7Zpy33enKWMBoSgPBfTFLJMsomNDK6Wj0KCqRiOmW2JXrZZVqVa_hG4s0V_UABOO9KsLrcS67sTu4s3JZtSLVTxXeCyxjyA_ujwNZ6sVso7lZSJ2vTu0xGvl3T7khjoUc4mmjF5yaeq_WLdz1W00]--></g></svg>