<svg xmlns="http://www.w3.org/2000/svg" xmlns:xlink="http://www.w3.org/1999/xlink" contentStyleType="text/css" data-diagram-type="ACTIVITY" height="448px" preserveAspectRatio="none" style="width:538px;height:448px;background:#FFFFFF;" version="1.1" viewBox="0 0 538 448" width="538px" zoomAndPan="magnify"><title>DSLController.process_script</title><defs/><g><g class="title" data-source-line="1"><text fill="#000000" font-family="sans-serif" font-size="14" font-weight="bold" lengthAdjust="spacing" textLength="228.0674" x="153.4851" y="32.9951">DSLController.process_script</text></g><ellipse cx="261.6013" cy="57.2969" fill="#222222" rx="10" ry="10" style="stroke:#222222;stroke-width:1;"/><rect fill="#F1F1F1" height="33.9688" rx="12.5" ry="12.5" style="stroke:#181818;stroke-width:0.5;" width="259.2164" x="131.9931" y="87.2969"/><text fill="#000000" font-family="sans-serif" font-size="12" lengthAdjust="spacing" textLength="239.2164" x="141.9931" y="108.4355">&#25509;&#25910; DSL &#33050;&#26412;&#65288;&#20998;&#21495;/&#25442;&#34892;&#20998;&#21106;&#20026;&#21629;&#20196;&#24207;&#21015;&#65289;</text><rect fill="#F1F1F1" height="33.9688" rx="12.5" ry="12.5" style="stroke:#181818;stroke-width:0.5;" width="104.0006" x="209.601" y="185.2656"/><text fill="#000000" font-family="sans-serif" font-size="12" lengthAdjust="spacing" textLength="84.0006" x="219.601" y="206.4043">&#33719;&#21462;&#19979;&#19968;&#26465;&#21629;&#20196;</text><polygon fill="#F1F1F1" points="220.1824,239.2344,303.0202,239.2344,315.0202,251.2344,303.0202,263.2344,220.1824,263.2344,208.1824,251.2344,220.1824,239.2344" style="stroke:#181818;stroke-width:0.5;"/><text fill="#000000" font-family="sans-serif" font-size="11" lengthAdjust="spacing" textLength="82.8378" x="220.1824" y="255.0425">&#26641;&#21160;&#30011;&#20173;&#22312;&#36827;&#34892;?</text><text fill="#000000" font-family="sans-serif" font-size="11" lengthAdjust="spacing" textLength="19.0083" x="189.1741" y="248.6401">yes</text><rect fill="#F1F1F1" height="47.9375" rx="12.5" ry="12.5" style="stroke:#181818;stroke-width:0.5;" width="247.6838" x="11" y="273.2344"/><text fill="#000000" font-family="sans-serif" font-size="12" lengthAdjust="spacing" textLength="84.0006" x="21" y="294.373">&#23558;&#21629;&#20196;&#21152;&#20837;&#38431;&#21015;</text><text fill="#000000" font-family="sans-serif" font-size="12" lengthAdjust="spacing" textLength="227.6838" x="21" y="308.3418">&#35843;&#29992; _process_next_script_command()</text><rect fill="#F1F1F1" height="33.9688" rx="12.5" ry="12.5" style="stroke:#181818;stroke-width:0.5;" width="219.3539" x="278.6838" y="273.2344"/><text fill="#000000" font-family="sans-serif" font-size="12" lengthAdjust="spacing" textLength="199.3539" x="288.6838" y="294.373">&#30452;&#25509;&#35843;&#29992; process_command(cmd)</text><polygon fill="#F1F1F1" points="261.6013,327.1719,273.6013,339.1719,261.6013,351.1719,249.6013,339.1719,261.6013,327.1719" style="stroke:#181818;stroke-width:0.5;"/><polygon fill="#F1F1F1" points="261.6013,141.2656,273.6013,153.2656,261.6013,165.2656,249.6013,153.2656,261.6013,141.2656" style="stroke:#181818;stroke-width:0.5;"/><polygon fill="#F1F1F1" points="236.6823,371.1719,286.5203,371.1719,298.5203,383.1719,286.5203,395.1719,236.6823,395.1719,224.6823,383.1719,236.6823,371.1719" style="stroke:#181818;stroke-width:0.5;"/><text fill="#000000" font-family="sans-serif" font-size="11" lengthAdjust="spacing" textLength="49.8381" x="236.6823" y="386.98">&#21097;&#20313;&#21629;&#20196;?</text><ellipse cx="261.6013" cy="426.1719" fill="none" rx="11" ry="11" style="stroke:#222222;stroke-width:1;"/><ellipse cx="261.6013" cy="426.1719" fill="#222222" rx="6" ry="6" style="stroke:#222222;stroke-width:1;"/><line style="stroke:#181818;stroke-width:1;" x1="261.6013" x2="261.6013" y1="67.2969" y2="87.2969"/><polygon fill="#181818" points="257.6013,77.2969,261.6013,87.2969,265.6013,77.2969,261.6013,81.2969" style="stroke:#181818;stroke-width:1;"/><line style="stroke:#181818;stroke-width:1;" x1="208.1824" x2="134.8419" y1="251.2344" y2="251.2344"/><line style="stroke:#181818;stroke-width:1;" x1="134.8419" x2="134.8419" y1="251.2344" y2="273.2344"/><polygon fill="#181818" points="130.8419,263.2344,134.8419,273.2344,138.8419,263.2344,134.8419,267.2344" style="stroke:#181818;stroke-width:1;"/><line style="stroke:#181818;stroke-width:1;" x1="315.0202" x2="388.3607" y1="251.2344" y2="251.2344"/><line style="stroke:#181818;stroke-width:1;" x1="388.3607" x2="388.3607" y1="251.2344" y2="273.2344"/><polygon fill="#181818" points="384.3607,263.2344,388.3607,273.2344,392.3607,263.2344,388.3607,267.2344" style="stroke:#181818;stroke-width:1;"/><line style="stroke:#181818;stroke-width:1;" x1="134.8419" x2="134.8419" y1="321.1719" y2="339.1719"/><line style="stroke:#181818;stroke-width:1;" x1="134.8419" x2="249.6013" y1="339.1719" y2="339.1719"/><polygon fill="#181818" points="239.6013,335.1719,249.6013,339.1719,239.6013,343.1719,243.6013,339.1719" style="stroke:#181818;stroke-width:1;"/><line style="stroke:#181818;stroke-width:1;" x1="388.3607" x2="388.3607" y1="307.2031" y2="339.1719"/><line style="stroke:#181818;stroke-width:1;" x1="388.3607" x2="273.6013" y1="339.1719" y2="339.1719"/><polygon fill="#181818" points="283.6013,335.1719,273.6013,339.1719,283.6013,343.1719,279.6013,339.1719" style="stroke:#181818;stroke-width:1;"/><line style="stroke:#181818;stroke-width:1;" x1="261.6013" x2="261.6013" y1="219.2344" y2="239.2344"/><polygon fill="#181818" points="257.6013,229.2344,261.6013,239.2344,265.6013,229.2344,261.6013,233.2344" style="stroke:#181818;stroke-width:1;"/><line style="stroke:#181818;stroke-width:1;" x1="261.6013" x2="261.6013" y1="165.2656" y2="185.2656"/><polygon fill="#181818" points="257.6013,175.2656,261.6013,185.2656,265.6013,175.2656,261.6013,179.2656" style="stroke:#181818;stroke-width:1;"/><line style="stroke:#181818;stroke-width:1;" x1="298.5203" x2="512.0377" y1="383.1719" y2="383.1719"/><polygon fill="#181818" points="508.0377,270.7188,512.0377,260.7188,516.0377,270.7188,512.0377,266.7188" style="stroke:#181818;stroke-width:1;"/><line style="stroke:#181818;stroke-width:1;" x1="512.0377" x2="512.0377" y1="153.2656" y2="383.1719"/><line style="stroke:#181818;stroke-width:1;" x1="512.0377" x2="273.6013" y1="153.2656" y2="153.2656"/><polygon fill="#181818" points="283.6013,149.2656,273.6013,153.2656,283.6013,157.2656,279.6013,153.2656" style="stroke:#181818;stroke-width:1;"/><line style="stroke:#181818;stroke-width:1;" x1="261.6013" x2="261.6013" y1="351.1719" y2="371.1719"/><polygon fill="#181818" points="257.6013,361.1719,261.6013,371.1719,265.6013,361.1719,261.6013,365.1719" style="stroke:#181818;stroke-width:1;"/><line style="stroke:#181818;stroke-width:1;" x1="261.6013" x2="261.6013" y1="121.2656" y2="141.2656"/><polygon fill="#181818" points="257.6013,131.2656,261.6013,141.2656,265.6013,131.2656,261.6013,135.2656" style="stroke:#181818;stroke-width:1;"/><line style="stroke:#181818;stroke-width:1;" x1="261.6013" x2="261.6013" y1="395.1719" y2="415.1719"/><polygon fill="#181818" points="257.6013,405.1719,261.6013,415.1719,265.6013,405.1719,261.6013,409.1719" style="stroke:#181818;stroke-width:1;"/><!--SRC=[DP3DIiD058NtUOfP9XlTjuikTEdEhH12CgM1P19c1jITe9QaseP2yAyLMx6GWeiYOaFJuilCJEAgh-249ClB_SuvzrngKmU2uzEJ8mzHx3aEn0S-zan8Y4vCRFjK8TJ0L6c9qKB4FoKAYfiNCVtSRmCUz7cqFXJ3zs9-NmxX5qitVBnZsGVVH3nut6_3jeAX3msg0D0gHciUFR3qZgLNudLUaMsviRj05RCn7oHvdB5ioAT9yJkHhXqDq1v4GBs4H9EWDE6hVXqncF7RnT_JcmmwGyNgEeyJe3Vd8tX1wmwwwRckWInLAxEWGs3bb4- -PQrQsEWQrdIj2aUMtQqxWFEUBV-byd39Ti_L5HrDliZp_m40]--></g></svg>