<svg xmlns="http://www.w3.org/2000/svg" xmlns:xlink="http://www.w3.org/1999/xlink" contentStyleType="text/css" data-diagram-type="ACTIVITY" height="412px" preserveAspectRatio="none" style="width:1476px;height:412px;background:#FFFFFF;" version="1.1" viewBox="0 0 1476 412" width="1476px" zoomAndPan="magnify"><title>LinearController.handle_action</title><defs/><g><g class="title" data-source-line="1"><text fill="#000000" font-family="sans-serif" font-size="14" font-weight="bold" lengthAdjust="spacing" textLength="243.4414" x="614.8626" y="32.9951">LinearController.handle_action</text></g><ellipse cx="748.0833" cy="57.2969" fill="#222222" rx="10" ry="10" style="stroke:#222222;stroke-width:1;"/><rect fill="#F1F1F1" height="33.9688" rx="12.5" ry="12.5" style="stroke:#181818;stroke-width:0.5;" width="182.387" x="656.8898" y="87.2969"/><text fill="#000000" font-family="sans-serif" font-size="12" lengthAdjust="spacing" textLength="162.387" x="666.8898" y="108.4355">&#25509;&#25910; action_type &#19982; params</text><polygon fill="#F1F1F1" points="117.5979,141.2656,158.5955,141.2656,170.5955,153.2656,158.5955,165.2656,117.5979,165.2656,105.5979,153.2656,117.5979,141.2656" style="stroke:#181818;stroke-width:0.5;"/><text fill="#000000" font-family="sans-serif" font-size="11" lengthAdjust="spacing" textLength="19.0083" x="142.0967" y="175.4761">yes</text><text fill="#000000" font-family="sans-serif" font-size="11" lengthAdjust="spacing" textLength="40.9976" x="117.5979" y="157.0737">create?</text><rect fill="#F1F1F1" height="33.9688" rx="12.5" ry="12.5" style="stroke:#181818;stroke-width:0.5;" width="254.1934" x="11" y="198.0703"/><text fill="#000000" font-family="sans-serif" font-size="12" lengthAdjust="spacing" textLength="234.1934" x="21" y="219.209">_create_structure(type, data, capacity)</text><polygon fill="#F1F1F1" points="355.8462,141.2656,393.0464,141.2656,405.0464,153.2656,393.0464,165.2656,355.8462,165.2656,343.8462,153.2656,355.8462,141.2656" style="stroke:#181818;stroke-width:0.5;"/><text fill="#000000" font-family="sans-serif" font-size="11" lengthAdjust="spacing" textLength="19.0083" x="378.4463" y="175.4761">yes</text><text fill="#000000" font-family="sans-serif" font-size="11" lengthAdjust="spacing" textLength="37.2002" x="355.8462" y="157.0737">insert?</text><rect fill="#F1F1F1" height="33.9688" rx="12.5" ry="12.5" style="stroke:#181818;stroke-width:0.5;" width="198.5059" x="275.1934" y="198.0703"/><text fill="#000000" font-family="sans-serif" font-size="12" lengthAdjust="spacing" textLength="178.5059" x="285.1934" y="219.209">_insert_element(index, value)</text><polygon fill="#F1F1F1" points="537.0234,141.2656,592.0664,141.2656,604.0664,153.2656,592.0664,165.2656,537.0234,165.2656,525.0234,153.2656,537.0234,141.2656" style="stroke:#181818;stroke-width:0.5;"/><text fill="#000000" font-family="sans-serif" font-size="11" lengthAdjust="spacing" textLength="19.0083" x="568.5449" y="175.4761">yes</text><text fill="#000000" font-family="sans-serif" font-size="11" lengthAdjust="spacing" textLength="55.043" x="537.0234" y="157.0737">delete at?</text><rect fill="#F1F1F1" height="33.9688" rx="12.5" ry="12.5" style="stroke:#181818;stroke-width:0.5;" width="161.6914" x="483.6992" y="198.0703"/><text fill="#000000" font-family="sans-serif" font-size="12" lengthAdjust="spacing" textLength="141.6914" x="493.6992" y="219.209">_delete_element(index)</text><polygon fill="#F1F1F1" points="717.9607,141.2656,756.4124,141.2656,768.4124,153.2656,756.4124,165.2656,717.9607,165.2656,705.9607,153.2656,717.9607,141.2656" style="stroke:#181818;stroke-width:0.5;"/><text fill="#000000" font-family="sans-serif" font-size="11" lengthAdjust="spacing" textLength="19.0083" x="741.1865" y="175.4761">yes</text><text fill="#000000" font-family="sans-serif" font-size="11" lengthAdjust="spacing" textLength="38.4517" x="717.9607" y="157.0737">get at?</text><rect fill="#F1F1F1" height="33.9688" rx="12.5" ry="12.5" style="stroke:#181818;stroke-width:0.5;" width="143.5918" x="665.3906" y="198.0703"/><text fill="#000000" font-family="sans-serif" font-size="12" lengthAdjust="spacing" textLength="123.5918" x="675.3906" y="219.209">_get_element(index)</text><polygon fill="#F1F1F1" points="889.0864,141.2656,921.5815,141.2656,933.5815,153.2656,921.5815,165.2656,889.0864,165.2656,877.0864,153.2656,889.0864,141.2656" style="stroke:#181818;stroke-width:0.5;"/><text fill="#000000" font-family="sans-serif" font-size="11" lengthAdjust="spacing" textLength="19.0083" x="909.334" y="175.4761">yes</text><text fill="#000000" font-family="sans-serif" font-size="11" lengthAdjust="spacing" textLength="32.4951" x="889.0864" y="157.0737">push?</text><rect fill="#F1F1F1" height="33.9688" rx="12.5" ry="12.5" style="stroke:#181818;stroke-width:0.5;" width="152.7031" x="828.9824" y="198.0703"/><text fill="#000000" font-family="sans-serif" font-size="12" lengthAdjust="spacing" textLength="132.7031" x="838.9824" y="219.209">_push_element(value)</text><polygon fill="#F1F1F1" points="1035.1299,141.2656,1061.6631,141.2656,1073.6631,153.2656,1061.6631,165.2656,1035.1299,165.2656,1023.1299,153.2656,1035.1299,141.2656" style="stroke:#181818;stroke-width:0.5;"/><text fill="#000000" font-family="sans-serif" font-size="11" lengthAdjust="spacing" textLength="19.0083" x="1052.3965" y="175.4761">yes</text><text fill="#000000" font-family="sans-serif" font-size="11" lengthAdjust="spacing" textLength="26.5332" x="1035.1299" y="157.0737">pop?</text><rect fill="#F1F1F1" height="33.9688" rx="12.5" ry="12.5" style="stroke:#181818;stroke-width:0.5;" width="113.4219" x="991.6855" y="198.0703"/><text fill="#000000" font-family="sans-serif" font-size="12" lengthAdjust="spacing" textLength="93.4219" x="1001.6855" y="219.209">_pop_element()</text><polygon fill="#F1F1F1" points="1143.9241,141.2656,1176.6501,141.2656,1188.6501,153.2656,1176.6501,165.2656,1143.9241,165.2656,1131.9241,153.2656,1143.9241,141.2656" style="stroke:#181818;stroke-width:0.5;"/><text fill="#000000" font-family="sans-serif" font-size="11" lengthAdjust="spacing" textLength="19.0083" x="1164.2871" y="175.4761">yes</text><text fill="#000000" font-family="sans-serif" font-size="11" lengthAdjust="spacing" textLength="32.7261" x="1143.9241" y="157.0737">peek?</text><rect fill="#F1F1F1" height="33.9688" rx="12.5" ry="12.5" style="stroke:#181818;stroke-width:0.5;" width="90.3594" x="1115.1074" y="198.0703"/><text fill="#000000" font-family="sans-serif" font-size="12" lengthAdjust="spacing" textLength="70.3594" x="1125.1074" y="219.209">_peek_top()</text><polygon fill="#F1F1F1" points="1261.823,141.2656,1294.7961,141.2656,1306.7961,153.2656,1294.7961,165.2656,1261.823,165.2656,1249.823,153.2656,1261.823,141.2656" style="stroke:#181818;stroke-width:0.5;"/><text fill="#000000" font-family="sans-serif" font-size="11" lengthAdjust="spacing" textLength="19.0083" x="1282.3096" y="175.4761">yes</text><text fill="#000000" font-family="sans-serif" font-size="11" lengthAdjust="spacing" textLength="32.9731" x="1261.823" y="157.0737">clear?</text><rect fill="#F1F1F1" height="33.9688" rx="12.5" ry="12.5" style="stroke:#181818;stroke-width:0.5;" width="125.6855" x="1215.4668" y="198.0703"/><text fill="#000000" font-family="sans-serif" font-size="12" lengthAdjust="spacing" textLength="105.6855" x="1225.4668" y="219.209">_clear_structure()</text><rect fill="#F1F1F1" height="33.9688" rx="12.5" ry="12.5" style="stroke:#181818;stroke-width:0.5;" width="114.0142" x="1351.1523" y="194.668"/><text fill="#000000" font-family="sans-serif" font-size="12" lengthAdjust="spacing" textLength="94.0142" x="1361.1523" y="215.8066">&#26410;&#30693;&#21160;&#20316; -&gt; &#25253;&#38169;</text><rect fill="#F1F1F1" height="33.9688" rx="12.5" ry="12.5" style="stroke:#181818;stroke-width:0.5;" width="111.2773" x="692.4446" y="272.0391"/><text fill="#000000" font-family="sans-serif" font-size="12" lengthAdjust="spacing" textLength="91.2773" x="702.4446" y="293.1777">_update_view()</text><rect fill="#F1F1F1" height="33.9688" rx="12.5" ry="12.5" style="stroke:#181818;stroke-width:0.5;" width="391.6836" x="552.2415" y="326.0078"/><text fill="#000000" font-family="sans-serif" font-size="12" lengthAdjust="spacing" textLength="371.6836" x="562.2415" y="347.1465">OperationRecorder.record_linear_action(action_type, params)</text><ellipse cx="748.0833" cy="390.9766" fill="none" rx="11" ry="11" style="stroke:#222222;stroke-width:1;"/><ellipse cx="748.0833" cy="390.9766" fill="#222222" rx="6" ry="6" style="stroke:#222222;stroke-width:1;"/><line style="stroke:#181818;stroke-width:1;" x1="748.0833" x2="748.0833" y1="67.2969" y2="87.2969"/><polygon fill="#181818" points="744.0833,77.2969,748.0833,87.2969,752.0833,77.2969,748.0833,81.2969" style="stroke:#181818;stroke-width:1;"/><line style="stroke:#181818;stroke-width:1;" x1="138.0967" x2="138.0967" y1="165.2656" y2="198.0703"/><polygon fill="#181818" points="134.0967,188.0703,138.0967,198.0703,142.0967,188.0703,138.0967,192.0703" style="stroke:#181818;stroke-width:1;"/><line style="stroke:#181818;stroke-width:1;" x1="138.0967" x2="138.0967" y1="232.0391" y2="252.0391"/><polygon fill="#181818" points="134.0967,242.0391,138.0967,252.0391,142.0967,242.0391,138.0967,246.0391" style="stroke:#181818;stroke-width:1;"/><line style="stroke:#181818;stroke-width:1;" x1="374.4463" x2="374.4463" y1="165.2656" y2="198.0703"/><polygon fill="#181818" points="370.4463,188.0703,374.4463,198.0703,378.4463,188.0703,374.4463,192.0703" style="stroke:#181818;stroke-width:1;"/><line style="stroke:#181818;stroke-width:1;" x1="374.4463" x2="374.4463" y1="232.0391" y2="252.0391"/><polygon fill="#181818" points="370.4463,242.0391,374.4463,252.0391,378.4463,242.0391,374.4463,246.0391" style="stroke:#181818;stroke-width:1;"/><line style="stroke:#181818;stroke-width:1;" x1="564.5449" x2="564.5449" y1="165.2656" y2="198.0703"/><polygon fill="#181818" points="560.5449,188.0703,564.5449,198.0703,568.5449,188.0703,564.5449,192.0703" style="stroke:#181818;stroke-width:1;"/><line style="stroke:#181818;stroke-width:1;" x1="564.5449" x2="564.5449" y1="232.0391" y2="252.0391"/><polygon fill="#181818" points="560.5449,242.0391,564.5449,252.0391,568.5449,242.0391,564.5449,246.0391" style="stroke:#181818;stroke-width:1;"/><line style="stroke:#181818;stroke-width:1;" x1="737.1865" x2="737.1865" y1="165.2656" y2="198.0703"/><polygon fill="#181818" points="733.1865,188.0703,737.1865,198.0703,741.1865,188.0703,737.1865,192.0703" style="stroke:#181818;stroke-width:1;"/><line style="stroke:#181818;stroke-width:1;" x1="737.1865" x2="737.1865" y1="232.0391" y2="252.0391"/><polygon fill="#181818" points="733.1865,242.0391,737.1865,252.0391,741.1865,242.0391,737.1865,246.0391" style="stroke:#181818;stroke-width:1;"/><line style="stroke:#181818;stroke-width:1;" x1="905.334" x2="905.334" y1="165.2656" y2="198.0703"/><polygon fill="#181818" points="901.334,188.0703,905.334,198.0703,909.334,188.0703,905.334,192.0703" style="stroke:#181818;stroke-width:1;"/><line style="stroke:#181818;stroke-width:1;" x1="905.334" x2="905.334" y1="232.0391" y2="252.0391"/><polygon fill="#181818" points="901.334,242.0391,905.334,252.0391,909.334,242.0391,905.334,246.0391" style="stroke:#181818;stroke-width:1;"/><line style="stroke:#181818;stroke-width:1;" x1="1048.3965" x2="1048.3965" y1="165.2656" y2="198.0703"/><polygon fill="#181818" points="1044.3965,188.0703,1048.3965,198.0703,1052.3965,188.0703,1048.3965,192.0703" style="stroke:#181818;stroke-width:1;"/><line style="stroke:#181818;stroke-width:1;" x1="1048.3965" x2="1048.3965" y1="232.0391" y2="252.0391"/><polygon fill="#181818" points="1044.3965,242.0391,1048.3965,252.0391,1052.3965,242.0391,1048.3965,246.0391" style="stroke:#181818;stroke-width:1;"/><line style="stroke:#181818;stroke-width:1;" x1="1160.2871" x2="1160.2871" y1="165.2656" y2="198.0703"/><polygon fill="#181818" points="1156.2871,188.0703,1160.2871,198.0703,1164.2871,188.0703,1160.2871,192.0703" style="stroke:#181818;stroke-width:1;"/><line style="stroke:#181818;stroke-width:1;" x1="1160.2871" x2="1160.2871" y1="232.0391" y2="252.0391"/><polygon fill="#181818" points="1156.2871,242.0391,1160.2871,252.0391,1164.2871,242.0391,1160.2871,246.0391" style="stroke:#181818;stroke-width:1;"/><line style="stroke:#181818;stroke-width:1;" x1="1278.3096" x2="1278.3096" y1="165.2656" y2="198.0703"/><polygon fill="#181818" points="1274.3096,188.0703,1278.3096,198.0703,1282.3096,188.0703,1278.3096,192.0703" style="stroke:#181818;stroke-width:1;"/><line style="stroke:#181818;stroke-width:1;" x1="1278.3096" x2="1278.3096" y1="232.0391" y2="252.0391"/><polygon fill="#181818" points="1274.3096,242.0391,1278.3096,252.0391,1282.3096,242.0391,1278.3096,246.0391" style="stroke:#181818;stroke-width:1;"/><line style="stroke:#181818;stroke-width:1;" x1="170.5955" x2="343.8462" y1="153.2656" y2="153.2656"/><polygon fill="#181818" points="333.8462,149.2656,343.8462,153.2656,333.8462,157.2656,337.8462,153.2656" style="stroke:#181818;stroke-width:1;"/><line style="stroke:#181818;stroke-width:1;" x1="405.0464" x2="525.0234" y1="153.2656" y2="153.2656"/><polygon fill="#181818" points="515.0234,149.2656,525.0234,153.2656,515.0234,157.2656,519.0234,153.2656" style="stroke:#181818;stroke-width:1;"/><line style="stroke:#181818;stroke-width:1;" x1="604.0664" x2="705.9607" y1="153.2656" y2="153.2656"/><polygon fill="#181818" points="695.9607,149.2656,705.9607,153.2656,695.9607,157.2656,699.9607,153.2656" style="stroke:#181818;stroke-width:1;"/><line style="stroke:#181818;stroke-width:1;" x1="768.4124" x2="877.0864" y1="153.2656" y2="153.2656"/><polygon fill="#181818" points="867.0864,149.2656,877.0864,153.2656,867.0864,157.2656,871.0864,153.2656" style="stroke:#181818;stroke-width:1;"/><line style="stroke:#181818;stroke-width:1;" x1="933.5815" x2="1023.1299" y1="153.2656" y2="153.2656"/><polygon fill="#181818" points="1013.1299,149.2656,1023.1299,153.2656,1013.1299,157.2656,1017.1299,153.2656" style="stroke:#181818;stroke-width:1;"/><line style="stroke:#181818;stroke-width:1;" x1="1073.6631" x2="1131.9241" y1="153.2656" y2="153.2656"/><polygon fill="#181818" points="1121.9241,149.2656,1131.9241,153.2656,1121.9241,157.2656,1125.9241,153.2656" style="stroke:#181818;stroke-width:1;"/><line style="stroke:#181818;stroke-width:1;" x1="1188.6501" x2="1249.823" y1="153.2656" y2="153.2656"/><polygon fill="#181818" points="1239.823,149.2656,1249.823,153.2656,1239.823,157.2656,1243.823,153.2656" style="stroke:#181818;stroke-width:1;"/><line style="stroke:#181818;stroke-width:1;" x1="748.0833" x2="748.0833" y1="121.2656" y2="126.2656"/><line style="stroke:#181818;stroke-width:1;" x1="748.0833" x2="138.0967" y1="126.2656" y2="126.2656"/><line style="stroke:#181818;stroke-width:1;" x1="138.0967" x2="138.0967" y1="126.2656" y2="141.2656"/><polygon fill="#181818" points="134.0967,131.2656,138.0967,141.2656,142.0967,131.2656,138.0967,135.2656" style="stroke:#181818;stroke-width:1;"/><line style="stroke:#181818;stroke-width:1;" x1="1306.7961" x2="1408.1595" y1="153.2656" y2="153.2656"/><line style="stroke:#181818;stroke-width:1;" x1="1408.1595" x2="1408.1595" y1="153.2656" y2="194.668"/><polygon fill="#181818" points="1404.1595,184.668,1408.1595,194.668,1412.1595,184.668,1408.1595,188.668" style="stroke:#181818;stroke-width:1;"/><line style="stroke:#181818;stroke-width:1;" x1="1408.1595" x2="1408.1595" y1="228.6367" y2="252.0391"/><polygon fill="#181818" points="1404.1595,242.0391,1408.1595,252.0391,1412.1595,242.0391,1408.1595,246.0391" style="stroke:#181818;stroke-width:1;"/><line style="stroke:#181818;stroke-width:1;" x1="138.0967" x2="1408.1595" y1="252.0391" y2="252.0391"/><line style="stroke:#181818;stroke-width:1;" x1="748.0833" x2="748.0833" y1="252.0391" y2="272.0391"/><polygon fill="#181818" points="744.0833,262.0391,748.0833,272.0391,752.0833,262.0391,748.0833,266.0391" style="stroke:#181818;stroke-width:1;"/><line style="stroke:#181818;stroke-width:1;" x1="748.0833" x2="748.0833" y1="306.0078" y2="326.0078"/><polygon fill="#181818" points="744.0833,316.0078,748.0833,326.0078,752.0833,316.0078,748.0833,320.0078" style="stroke:#181818;stroke-width:1;"/><line style="stroke:#181818;stroke-width:1;" x1="748.0833" x2="748.0833" y1="359.9766" y2="379.9766"/><polygon fill="#181818" points="744.0833,369.9766,748.0833,379.9766,752.0833,369.9766,748.0833,373.9766" style="stroke:#181818;stroke-width:1;"/><!--SRC=[TPB1IWCn48Rl-nHptCBg0sn13ru5mHS8GpArmJG9oMorhz13Jxq81Ky5yG74YszJLtmBasufgrrluP__-mapFsis1DVQ4eOhPpauOoYSJz4gGm8bQsUBo1YugDlLjbs_GISANdY2tViAF0QSnN6X9r3AGCXqEGAUaeLoGN5K0DIYqqNaq4Xk0fMPha0XOmKIFKhDYz6u81CfvsWRAV1fJgSBCZGZoyccwB62EPg6UhHASoR0WO1kz3kWHzuH3s99_vVnJPoU4baz8dy_w9qV89m_0dqlqVs0EQc2dUyxfKb77DXzbdkhFn1vrcvUlvwtdykNtSS6pYwWNMw_rqzfRfMU5BLelCfdcsjwo5XzuobWllujIHTKAahOFuJP5-ZGbxBNaEfGZqJ7zDqV]--></g></svg>