<svg xmlns="http://www.w3.org/2000/svg" xmlns:xlink="http://www.w3.org/1999/xlink" contentStyleType="text/css" data-diagram-type="ACTIVITY" height="494px" preserveAspectRatio="none" style="width:1752px;height:494px;background:#FFFFFF;" version="1.1" viewBox="0 0 1752 494" width="1752px" zoomAndPan="magnify"><title>TreeController.handle_action</title><defs/><g><g class="title" data-source-line="1"><text fill="#000000" font-family="sans-serif" font-size="14" font-weight="bold" lengthAdjust="spacing" textLength="229.3525" x="760.0146" y="32.9951">TreeController.handle_action</text></g><ellipse cx="879.8662" cy="57.2969" fill="#222222" rx="10" ry="10" style="stroke:#222222;stroke-width:1;"/><rect fill="#F1F1F1" height="33.9688" rx="12.5" ry="12.5" style="stroke:#181818;stroke-width:0.5;" width="182.387" x="788.6727" y="87.2969"/><text fill="#000000" font-family="sans-serif" font-size="12" lengthAdjust="spacing" textLength="162.387" x="798.6727" y="108.4355">&#25509;&#25910; action_type &#19982; params</text><polygon fill="#F1F1F1" points="113.9534,141.2656,154.9509,141.2656,166.9509,153.2656,154.9509,165.2656,113.9534,165.2656,101.9534,153.2656,113.9534,141.2656" style="stroke:#181818;stroke-width:0.5;"/><text fill="#000000" font-family="sans-serif" font-size="11" lengthAdjust="spacing" textLength="19.0083" x="138.4521" y="175.4761">yes</text><text fill="#000000" font-family="sans-serif" font-size="11" lengthAdjust="spacing" textLength="40.9976" x="113.9534" y="157.0737">create?</text><rect fill="#F1F1F1" height="33.9688" rx="12.5" ry="12.5" style="stroke:#181818;stroke-width:0.5;" width="246.9043" x="11" y="196.9761"/><text fill="#000000" font-family="sans-serif" font-size="12" lengthAdjust="spacing" textLength="226.9043" x="21" y="218.1147">_create_structure(type, initial_values)</text><polygon fill="#F1F1F1" points="329.394,141.2656,402.8169,141.2656,414.8169,153.2656,402.8169,165.2656,329.394,165.2656,317.394,153.2656,329.394,141.2656" style="stroke:#181818;stroke-width:0.5;"/><text fill="#000000" font-family="sans-serif" font-size="11" lengthAdjust="spacing" textLength="19.0083" x="370.1055" y="175.4761">yes</text><text fill="#000000" font-family="sans-serif" font-size="11" lengthAdjust="spacing" textLength="73.4229" x="329.394" y="157.0737">build bst/avl?</text><rect fill="#F1F1F1" height="47.9375" rx="12.5" ry="12.5" style="stroke:#181818;stroke-width:0.5;" width="104.0006" x="314.1051" y="196.9761"/><text fill="#000000" font-family="sans-serif" font-size="12" lengthAdjust="spacing" textLength="84.0006" x="324.1051" y="218.1147">&#23558;&#25554;&#20837;&#24207;&#21015;&#20837;&#38431;</text><text fill="#000000" font-family="sans-serif" font-size="12" lengthAdjust="spacing" textLength="72.0005" x="324.1051" y="232.0835">&#35774;&#32622;&#21160;&#30011;&#29366;&#24577;</text><rect fill="#F1F1F1" height="33.9688" rx="12.5" ry="12.5" style="stroke:#181818;stroke-width:0.5;" width="196.4023" x="267.9043" y="279.9136"/><text fill="#000000" font-family="sans-serif" font-size="12" lengthAdjust="spacing" textLength="176.4023" x="277.9043" y="301.0522">_start_next_bst_build_insert()</text><polygon fill="#F1F1F1" points="557.0366,141.2656,594.2368,141.2656,606.2368,153.2656,594.2368,165.2656,557.0366,165.2656,545.0366,153.2656,557.0366,141.2656" style="stroke:#181818;stroke-width:0.5;"/><text fill="#000000" font-family="sans-serif" font-size="11" lengthAdjust="spacing" textLength="19.0083" x="579.6367" y="175.4761">yes</text><text fill="#000000" font-family="sans-serif" font-size="11" lengthAdjust="spacing" textLength="37.2002" x="557.0366" y="157.0737">insert?</text><rect fill="#F1F1F1" height="33.9688" rx="12.5" ry="12.5" style="stroke:#181818;stroke-width:0.5;" width="202.6602" x="474.3066" y="196.9761"/><text fill="#000000" font-family="sans-serif" font-size="12" lengthAdjust="spacing" textLength="182.6602" x="484.3066" y="218.1147">_insert_value(value, position?)</text><polygon fill="#F1F1F1" points="770.1809,141.2656,818.032,141.2656,830.032,153.2656,818.032,165.2656,770.1809,165.2656,758.1809,153.2656,770.1809,141.2656" style="stroke:#181818;stroke-width:0.5;"/><text fill="#000000" font-family="sans-serif" font-size="11" lengthAdjust="spacing" textLength="19.0083" x="798.1064" y="175.4761">yes</text><text fill="#000000" font-family="sans-serif" font-size="11" lengthAdjust="spacing" textLength="47.8511" x="770.1809" y="157.0737">remove?</text><rect fill="#F1F1F1" height="33.9688" rx="12.5" ry="12.5" style="stroke:#181818;stroke-width:0.5;" width="214.2793" x="686.9668" y="196.9761"/><text fill="#000000" font-family="sans-serif" font-size="12" lengthAdjust="spacing" textLength="194.2793" x="696.9668" y="218.1147">_remove_value(value, position?)</text><polygon fill="#F1F1F1" points="973.4578,141.2656,1016.0774,141.2656,1028.0774,153.2656,1016.0774,165.2656,973.4578,165.2656,961.4578,153.2656,973.4578,141.2656" style="stroke:#181818;stroke-width:0.5;"/><text fill="#000000" font-family="sans-serif" font-size="11" lengthAdjust="spacing" textLength="19.0083" x="998.7676" y="175.4761">yes</text><text fill="#000000" font-family="sans-serif" font-size="11" lengthAdjust="spacing" textLength="42.6196" x="973.4578" y="157.0737">search?</text><rect fill="#F1F1F1" height="33.9688" rx="12.5" ry="12.5" style="stroke:#181818;stroke-width:0.5;" width="147.043" x="921.2461" y="196.9761"/><text fill="#000000" font-family="sans-serif" font-size="12" lengthAdjust="spacing" textLength="127.043" x="931.2461" y="218.1147">_search_value(value)</text><polygon fill="#F1F1F1" points="1132.0726,141.2656,1244.4359,141.2656,1256.4359,153.2656,1244.4359,165.2656,1132.0726,165.2656,1120.0726,153.2656,1132.0726,141.2656" style="stroke:#181818;stroke-width:0.5;"/><text fill="#000000" font-family="sans-serif" font-size="11" lengthAdjust="spacing" textLength="19.0083" x="1192.2542" y="175.4761">yes</text><text fill="#000000" font-family="sans-serif" font-size="11" lengthAdjust="spacing" textLength="112.3633" x="1132.0726" y="157.0737">traverse binarytree?</text><rect fill="#F1F1F1" height="33.9688" rx="12.5" ry="12.5" style="stroke:#181818;stroke-width:0.5;" width="214.6315" x="1080.9385" y="196.9761"/><text fill="#000000" font-family="sans-serif" font-size="12" lengthAdjust="spacing" textLength="194.6315" x="1090.9385" y="218.1147">&#25353;&#36941;&#21382;&#31867;&#22411;&#22788;&#29702; (pre/in/post/level)</text><polygon fill="#F1F1F1" points="1338.9331,141.2656,1478.6353,141.2656,1490.6353,153.2656,1478.6353,165.2656,1338.9331,165.2656,1326.9331,153.2656,1338.9331,141.2656" style="stroke:#181818;stroke-width:0.5;"/><text fill="#000000" font-family="sans-serif" font-size="11" lengthAdjust="spacing" textLength="19.0083" x="1412.7842" y="175.4761">yes</text><text fill="#000000" font-family="sans-serif" font-size="11" lengthAdjust="spacing" textLength="139.7021" x="1338.9331" y="157.0737">encode/decode huffman?</text><rect fill="#F1F1F1" height="33.9688" rx="12.5" ry="12.5" style="stroke:#181818;stroke-width:0.5;" width="206.4285" x="1305.57" y="196.9761"/><text fill="#000000" font-family="sans-serif" font-size="12" lengthAdjust="spacing" textLength="186.4285" x="1315.57" y="218.1147">&#20351;&#29992; HuffmanTree &#25191;&#34892;&#32534;&#30721;/&#35299;&#30721;</text><polygon fill="#F1F1F1" points="1553.1964,141.2656,1586.1696,141.2656,1598.1696,153.2656,1586.1696,165.2656,1553.1964,165.2656,1541.1964,153.2656,1553.1964,141.2656" style="stroke:#181818;stroke-width:0.5;"/><text fill="#000000" font-family="sans-serif" font-size="11" lengthAdjust="spacing" textLength="19.0083" x="1573.683" y="175.4761">yes</text><text fill="#000000" font-family="sans-serif" font-size="11" lengthAdjust="spacing" textLength="32.9731" x="1553.1964" y="157.0737">clear?</text><rect fill="#F1F1F1" height="33.9688" rx="12.5" ry="12.5" style="stroke:#181818;stroke-width:0.5;" width="95.3691" x="1521.9984" y="196.9761"/><text fill="#000000" font-family="sans-serif" font-size="12" lengthAdjust="spacing" textLength="75.3691" x="1531.9984" y="218.1147">_clear_tree()</text><rect fill="#F1F1F1" height="33.9688" rx="12.5" ry="12.5" style="stroke:#181818;stroke-width:0.5;" width="114.0142" x="1627.3676" y="235.0425"/><text fill="#000000" font-family="sans-serif" font-size="12" lengthAdjust="spacing" textLength="94.0142" x="1637.3676" y="256.1812">&#26410;&#30693;&#21160;&#20316; -&gt; &#25253;&#38169;</text><rect fill="#F1F1F1" height="33.9688" rx="12.5" ry="12.5" style="stroke:#181818;stroke-width:0.5;" width="111.2773" x="824.2275" y="353.8823"/><text fill="#000000" font-family="sans-serif" font-size="12" lengthAdjust="spacing" textLength="91.2773" x="834.2275" y="375.021">_update_view()</text><rect fill="#F1F1F1" height="33.9688" rx="12.5" ry="12.5" style="stroke:#181818;stroke-width:0.5;" width="382.1445" x="688.7939" y="407.8511"/><text fill="#000000" font-family="sans-serif" font-size="12" lengthAdjust="spacing" textLength="362.1445" x="698.7939" y="428.9897">OperationRecorder.record_tree_action(action_type, params)</text><ellipse cx="879.8662" cy="472.8198" fill="none" rx="11" ry="11" style="stroke:#222222;stroke-width:1;"/><ellipse cx="879.8662" cy="472.8198" fill="#222222" rx="6" ry="6" style="stroke:#222222;stroke-width:1;"/><line style="stroke:#181818;stroke-width:1;" x1="879.8662" x2="879.8662" y1="67.2969" y2="87.2969"/><polygon fill="#181818" points="875.8662,77.2969,879.8662,87.2969,883.8662,77.2969,879.8662,81.2969" style="stroke:#181818;stroke-width:1;"/><line style="stroke:#181818;stroke-width:1;" x1="366.1055" x2="366.1055" y1="244.9136" y2="279.9136"/><polygon fill="#181818" points="362.1055,269.9136,366.1055,279.9136,370.1055,269.9136,366.1055,273.9136" style="stroke:#181818;stroke-width:1;"/><line style="stroke:#181818;stroke-width:1;" x1="134.4521" x2="134.4521" y1="165.2656" y2="196.9761"/><polygon fill="#181818" points="130.4521,186.9761,134.4521,196.9761,138.4521,186.9761,134.4521,190.9761" style="stroke:#181818;stroke-width:1;"/><line style="stroke:#181818;stroke-width:1;" x1="134.4521" x2="134.4521" y1="230.9448" y2="333.8823"/><polygon fill="#181818" points="130.4521,323.8823,134.4521,333.8823,138.4521,323.8823,134.4521,327.8823" style="stroke:#181818;stroke-width:1;"/><line style="stroke:#181818;stroke-width:1;" x1="366.1055" x2="366.1055" y1="165.2656" y2="196.9761"/><polygon fill="#181818" points="362.1055,186.9761,366.1055,196.9761,370.1055,186.9761,366.1055,190.9761" style="stroke:#181818;stroke-width:1;"/><line style="stroke:#181818;stroke-width:1;" x1="366.1055" x2="366.1055" y1="313.8823" y2="333.8823"/><polygon fill="#181818" points="362.1055,323.8823,366.1055,333.8823,370.1055,323.8823,366.1055,327.8823" style="stroke:#181818;stroke-width:1;"/><line style="stroke:#181818;stroke-width:1;" x1="575.6367" x2="575.6367" y1="165.2656" y2="196.9761"/><polygon fill="#181818" points="571.6367,186.9761,575.6367,196.9761,579.6367,186.9761,575.6367,190.9761" style="stroke:#181818;stroke-width:1;"/><line style="stroke:#181818;stroke-width:1;" x1="575.6367" x2="575.6367" y1="230.9448" y2="333.8823"/><polygon fill="#181818" points="571.6367,323.8823,575.6367,333.8823,579.6367,323.8823,575.6367,327.8823" style="stroke:#181818;stroke-width:1;"/><line style="stroke:#181818;stroke-width:1;" x1="794.1064" x2="794.1064" y1="165.2656" y2="196.9761"/><polygon fill="#181818" points="790.1064,186.9761,794.1064,196.9761,798.1064,186.9761,794.1064,190.9761" style="stroke:#181818;stroke-width:1;"/><line style="stroke:#181818;stroke-width:1;" x1="794.1064" x2="794.1064" y1="230.9448" y2="333.8823"/><polygon fill="#181818" points="790.1064,323.8823,794.1064,333.8823,798.1064,323.8823,794.1064,327.8823" style="stroke:#181818;stroke-width:1;"/><line style="stroke:#181818;stroke-width:1;" x1="994.7676" x2="994.7676" y1="165.2656" y2="196.9761"/><polygon fill="#181818" points="990.7676,186.9761,994.7676,196.9761,998.7676,186.9761,994.7676,190.9761" style="stroke:#181818;stroke-width:1;"/><line style="stroke:#181818;stroke-width:1;" x1="994.7676" x2="994.7676" y1="230.9448" y2="333.8823"/><polygon fill="#181818" points="990.7676,323.8823,994.7676,333.8823,998.7676,323.8823,994.7676,327.8823" style="stroke:#181818;stroke-width:1;"/><line style="stroke:#181818;stroke-width:1;" x1="1188.2542" x2="1188.2542" y1="165.2656" y2="196.9761"/><polygon fill="#181818" points="1184.2542,186.9761,1188.2542,196.9761,1192.2542,186.9761,1188.2542,190.9761" style="stroke:#181818;stroke-width:1;"/><line style="stroke:#181818;stroke-width:1;" x1="1188.2542" x2="1188.2542" y1="230.9448" y2="333.8823"/><polygon fill="#181818" points="1184.2542,323.8823,1188.2542,333.8823,1192.2542,323.8823,1188.2542,327.8823" style="stroke:#181818;stroke-width:1;"/><line style="stroke:#181818;stroke-width:1;" x1="1408.7842" x2="1408.7842" y1="165.2656" y2="196.9761"/><polygon fill="#181818" points="1404.7842,186.9761,1408.7842,196.9761,1412.7842,186.9761,1408.7842,190.9761" style="stroke:#181818;stroke-width:1;"/><line style="stroke:#181818;stroke-width:1;" x1="1408.7842" x2="1408.7842" y1="230.9448" y2="333.8823"/><polygon fill="#181818" points="1404.7842,323.8823,1408.7842,333.8823,1412.7842,323.8823,1408.7842,327.8823" style="stroke:#181818;stroke-width:1;"/><line style="stroke:#181818;stroke-width:1;" x1="1569.683" x2="1569.683" y1="165.2656" y2="196.9761"/><polygon fill="#181818" points="1565.683,186.9761,1569.683,196.9761,1573.683,186.9761,1569.683,190.9761" style="stroke:#181818;stroke-width:1;"/><line style="stroke:#181818;stroke-width:1;" x1="1569.683" x2="1569.683" y1="230.9448" y2="333.8823"/><polygon fill="#181818" points="1565.683,323.8823,1569.683,333.8823,1573.683,323.8823,1569.683,327.8823" style="stroke:#181818;stroke-width:1;"/><line style="stroke:#181818;stroke-width:1;" x1="166.9509" x2="317.394" y1="153.2656" y2="153.2656"/><polygon fill="#181818" points="307.394,149.2656,317.394,153.2656,307.394,157.2656,311.394,153.2656" style="stroke:#181818;stroke-width:1;"/><line style="stroke:#181818;stroke-width:1;" x1="414.8169" x2="545.0366" y1="153.2656" y2="153.2656"/><polygon fill="#181818" points="535.0366,149.2656,545.0366,153.2656,535.0366,157.2656,539.0366,153.2656" style="stroke:#181818;stroke-width:1;"/><line style="stroke:#181818;stroke-width:1;" x1="606.2368" x2="758.1809" y1="153.2656" y2="153.2656"/><polygon fill="#181818" points="748.1809,149.2656,758.1809,153.2656,748.1809,157.2656,752.1809,153.2656" style="stroke:#181818;stroke-width:1;"/><line style="stroke:#181818;stroke-width:1;" x1="830.032" x2="961.4578" y1="153.2656" y2="153.2656"/><polygon fill="#181818" points="951.4578,149.2656,961.4578,153.2656,951.4578,157.2656,955.4578,153.2656" style="stroke:#181818;stroke-width:1;"/><line style="stroke:#181818;stroke-width:1;" x1="1028.0774" x2="1120.0726" y1="153.2656" y2="153.2656"/><polygon fill="#181818" points="1110.0726,149.2656,1120.0726,153.2656,1110.0726,157.2656,1114.0726,153.2656" style="stroke:#181818;stroke-width:1;"/><line style="stroke:#181818;stroke-width:1;" x1="1256.4359" x2="1326.9331" y1="153.2656" y2="153.2656"/><polygon fill="#181818" points="1316.9331,149.2656,1326.9331,153.2656,1316.9331,157.2656,1320.9331,153.2656" style="stroke:#181818;stroke-width:1;"/><line style="stroke:#181818;stroke-width:1;" x1="1490.6353" x2="1541.1964" y1="153.2656" y2="153.2656"/><polygon fill="#181818" points="1531.1964,149.2656,1541.1964,153.2656,1531.1964,157.2656,1535.1964,153.2656" style="stroke:#181818;stroke-width:1;"/><line style="stroke:#181818;stroke-width:1;" x1="879.8662" x2="879.8662" y1="121.2656" y2="126.2656"/><line style="stroke:#181818;stroke-width:1;" x1="879.8662" x2="134.4521" y1="126.2656" y2="126.2656"/><line style="stroke:#181818;stroke-width:1;" x1="134.4521" x2="134.4521" y1="126.2656" y2="141.2656"/><polygon fill="#181818" points="130.4521,131.2656,134.4521,141.2656,138.4521,131.2656,134.4521,135.2656" style="stroke:#181818;stroke-width:1;"/><line style="stroke:#181818;stroke-width:1;" x1="1598.1696" x2="1684.3747" y1="153.2656" y2="153.2656"/><line style="stroke:#181818;stroke-width:1;" x1="1684.3747" x2="1684.3747" y1="153.2656" y2="235.0425"/><polygon fill="#181818" points="1680.3747,225.0425,1684.3747,235.0425,1688.3747,225.0425,1684.3747,229.0425" style="stroke:#181818;stroke-width:1;"/><line style="stroke:#181818;stroke-width:1;" x1="1684.3747" x2="1684.3747" y1="269.0112" y2="333.8823"/><polygon fill="#181818" points="1680.3747,323.8823,1684.3747,333.8823,1688.3747,323.8823,1684.3747,327.8823" style="stroke:#181818;stroke-width:1;"/><line style="stroke:#181818;stroke-width:1;" x1="134.4521" x2="1684.3747" y1="333.8823" y2="333.8823"/><line style="stroke:#181818;stroke-width:1;" x1="879.8662" x2="879.8662" y1="333.8823" y2="353.8823"/><polygon fill="#181818" points="875.8662,343.8823,879.8662,353.8823,883.8662,343.8823,879.8662,347.8823" style="stroke:#181818;stroke-width:1;"/><line style="stroke:#181818;stroke-width:1;" x1="879.8662" x2="879.8662" y1="387.8511" y2="407.8511"/><polygon fill="#181818" points="875.8662,397.8511,879.8662,407.8511,883.8662,397.8511,879.8662,401.8511" style="stroke:#181818;stroke-width:1;"/><line style="stroke:#181818;stroke-width:1;" x1="879.8662" x2="879.8662" y1="441.8198" y2="461.8198"/><polygon fill="#181818" points="875.8662,451.8198,879.8662,461.8198,883.8662,451.8198,879.8662,455.8198" style="stroke:#181818;stroke-width:1;"/><!--SRC=[XLBFQnD15BxlN_6EMuZkFG5xyE9D48_2CDbz8GEJsMNcxThS36YmiQOYmHzGhAAXnKFHIocjgVzCTZVvBvpPhRYm1I_pXk_DzyqtypuI914UQyJxiI8TIudwxf2hI2BZ8ObOUOQu9gzRp9V5uXngaD4uGLXVp27XcezCpnC3y4EDd71t1sY82lmncXqFeCjgd1dIQKYfHj-nEo2K8C4boxXCxT6UXzAWq-cdGaRGDnJmJBRayX_Jul1j_cAPNnxcBz_RpVR3yHErERikLsVvxBHSN9Mpy-BPf5TTNjbd2lU8MKLMQJEX36ho6tVMIDjxZTSU_MhjG18RuNvXjy7NE8gpMzvUu__d6-Gw7BRvDTxaDqYaUORQ8FI5udfCTemjXU9WVpjvdS-dvS-h_DEh_DlpyiqK_4HZ85HWhL0WCKFPa4KLnX464Re2mtGm677L4bwlVfUBKtXGjrs4eDW_sNmvA7-zApzFWit9Lrl-gORIFkMMS3YOEUj_nr6vFlfU7Y_jDDUh8xXp3uhPShluQFig4WEloz8aSf7A13vrjEx313LtV_h8cjQH3R6kDfNmJPBzHdOxDy6rN4DnyWS0]--></g></svg>